<mxfile host="app.diagrams.net" modified="2021-02-28T19:13:15.022Z" agent="5.0 (Windows NT 10.0; Win64; x64) AppleWebKit/537.36 (KHTML, like Gecko) Chrome/88.0.4324.190 Safari/537.36" etag="ReDg-9MI1deM4Rf5aa0N" version="14.4.3" type="github">
  <diagram id="Z83CDnLwwzP-TWheSOMz" name="Page-1">
    <mxGraphModel dx="1422" dy="794" grid="1" gridSize="10" guides="1" tooltips="1" connect="1" arrows="1" fold="1" page="1" pageScale="1" pageWidth="850" pageHeight="1100" math="0" shadow="0">
      <root>
        <mxCell id="0" />
        <mxCell id="1" parent="0" />
        <mxCell id="xZ4t5qYj1OsYNwdSgrL3-1" value="Back-End" style="rounded=0;whiteSpace=wrap;html=1;" vertex="1" parent="1">
          <mxGeometry x="470" y="390" width="110" height="40" as="geometry" />
        </mxCell>
        <mxCell id="xZ4t5qYj1OsYNwdSgrL3-2" value="Database" style="rounded=0;whiteSpace=wrap;html=1;" vertex="1" parent="1">
          <mxGeometry x="470" y="470" width="110" height="40" as="geometry" />
        </mxCell>
        <mxCell id="xZ4t5qYj1OsYNwdSgrL3-3" value="" style="endArrow=classic;html=1;entryX=0.5;entryY=0;entryDx=0;entryDy=0;exitX=0.5;exitY=1;exitDx=0;exitDy=0;" edge="1" parent="1" source="xZ4t5qYj1OsYNwdSgrL3-1" target="xZ4t5qYj1OsYNwdSgrL3-2">
          <mxGeometry width="50" height="50" relative="1" as="geometry">
            <mxPoint x="130" y="430" as="sourcePoint" />
            <mxPoint x="180" y="380" as="targetPoint" />
          </mxGeometry>
        </mxCell>
        <mxCell id="xZ4t5qYj1OsYNwdSgrL3-6" value="" style="edgeStyle=orthogonalEdgeStyle;rounded=0;orthogonalLoop=1;jettySize=auto;html=1;" edge="1" parent="1" source="xZ4t5qYj1OsYNwdSgrL3-4" target="xZ4t5qYj1OsYNwdSgrL3-5">
          <mxGeometry relative="1" as="geometry" />
        </mxCell>
        <mxCell id="xZ4t5qYj1OsYNwdSgrL3-4" value="Front-End" style="rounded=0;whiteSpace=wrap;html=1;" vertex="1" parent="1">
          <mxGeometry x="140" y="390" width="110" height="40" as="geometry" />
        </mxCell>
        <mxCell id="xZ4t5qYj1OsYNwdSgrL3-16" value="" style="edgeStyle=orthogonalEdgeStyle;rounded=0;orthogonalLoop=1;jettySize=auto;html=1;entryX=0.5;entryY=0;entryDx=0;entryDy=0;" edge="1" parent="1" source="xZ4t5qYj1OsYNwdSgrL3-5" target="xZ4t5qYj1OsYNwdSgrL3-11">
          <mxGeometry relative="1" as="geometry">
            <Array as="points">
              <mxPoint x="195" y="550" />
              <mxPoint x="385" y="550" />
            </Array>
          </mxGeometry>
        </mxCell>
        <mxCell id="xZ4t5qYj1OsYNwdSgrL3-17" value="" style="edgeStyle=orthogonalEdgeStyle;rounded=0;orthogonalLoop=1;jettySize=auto;html=1;entryX=0.5;entryY=0;entryDx=0;entryDy=0;" edge="1" parent="1" source="xZ4t5qYj1OsYNwdSgrL3-5" target="xZ4t5qYj1OsYNwdSgrL3-7">
          <mxGeometry relative="1" as="geometry">
            <Array as="points">
              <mxPoint x="195" y="550" />
              <mxPoint x="35" y="550" />
            </Array>
          </mxGeometry>
        </mxCell>
        <mxCell id="xZ4t5qYj1OsYNwdSgrL3-18" value="" style="edgeStyle=orthogonalEdgeStyle;rounded=0;orthogonalLoop=1;jettySize=auto;html=1;" edge="1" parent="1" source="xZ4t5qYj1OsYNwdSgrL3-5" target="xZ4t5qYj1OsYNwdSgrL3-8">
          <mxGeometry relative="1" as="geometry">
            <Array as="points">
              <mxPoint x="195" y="550" />
              <mxPoint x="100" y="550" />
            </Array>
          </mxGeometry>
        </mxCell>
        <mxCell id="xZ4t5qYj1OsYNwdSgrL3-19" value="" style="edgeStyle=orthogonalEdgeStyle;rounded=0;orthogonalLoop=1;jettySize=auto;html=1;entryX=0.5;entryY=0;entryDx=0;entryDy=0;" edge="1" parent="1" source="xZ4t5qYj1OsYNwdSgrL3-5" target="xZ4t5qYj1OsYNwdSgrL3-10">
          <mxGeometry relative="1" as="geometry">
            <Array as="points">
              <mxPoint x="195" y="550" />
              <mxPoint x="275" y="550" />
            </Array>
          </mxGeometry>
        </mxCell>
        <mxCell id="xZ4t5qYj1OsYNwdSgrL3-5" value="Screens" style="rounded=0;whiteSpace=wrap;html=1;" vertex="1" parent="1">
          <mxGeometry x="140" y="470" width="110" height="40" as="geometry" />
        </mxCell>
        <mxCell id="xZ4t5qYj1OsYNwdSgrL3-7" value="Sign up" style="rounded=0;whiteSpace=wrap;html=1;" vertex="1" parent="1">
          <mxGeometry x="10" y="580" width="50" height="40" as="geometry" />
        </mxCell>
        <mxCell id="xZ4t5qYj1OsYNwdSgrL3-8" value="Sign in" style="rounded=0;whiteSpace=wrap;html=1;" vertex="1" parent="1">
          <mxGeometry x="70" y="580" width="60" height="40" as="geometry" />
        </mxCell>
        <mxCell id="xZ4t5qYj1OsYNwdSgrL3-9" value="User profile" style="rounded=0;whiteSpace=wrap;html=1;" vertex="1" parent="1">
          <mxGeometry x="140" y="580" width="70" height="40" as="geometry" />
        </mxCell>
        <mxCell id="xZ4t5qYj1OsYNwdSgrL3-10" value="Media management" style="rounded=0;whiteSpace=wrap;html=1;" vertex="1" parent="1">
          <mxGeometry x="220" y="580" width="110" height="40" as="geometry" />
        </mxCell>
        <mxCell id="xZ4t5qYj1OsYNwdSgrL3-11" value="Media playback" style="rounded=0;whiteSpace=wrap;html=1;" vertex="1" parent="1">
          <mxGeometry x="340" y="580" width="90" height="40" as="geometry" />
        </mxCell>
        <mxCell id="xZ4t5qYj1OsYNwdSgrL3-20" value="" style="edgeStyle=orthogonalEdgeStyle;rounded=0;orthogonalLoop=1;jettySize=auto;html=1;entryX=0.5;entryY=0;entryDx=0;entryDy=0;exitX=0.5;exitY=1;exitDx=0;exitDy=0;" edge="1" parent="1" source="xZ4t5qYj1OsYNwdSgrL3-5" target="xZ4t5qYj1OsYNwdSgrL3-9">
          <mxGeometry relative="1" as="geometry">
            <mxPoint x="205" y="540" as="sourcePoint" />
            <mxPoint x="285" y="590" as="targetPoint" />
            <Array as="points">
              <mxPoint x="195" y="550" />
              <mxPoint x="175" y="550" />
            </Array>
          </mxGeometry>
        </mxCell>
        <mxCell id="xZ4t5qYj1OsYNwdSgrL3-24" value="" style="edgeStyle=orthogonalEdgeStyle;rounded=0;orthogonalLoop=1;jettySize=auto;html=1;" edge="1" parent="1" source="xZ4t5qYj1OsYNwdSgrL3-23" target="xZ4t5qYj1OsYNwdSgrL3-4">
          <mxGeometry relative="1" as="geometry">
            <Array as="points">
              <mxPoint x="365" y="360" />
              <mxPoint x="195" y="360" />
            </Array>
          </mxGeometry>
        </mxCell>
        <mxCell id="xZ4t5qYj1OsYNwdSgrL3-25" style="edgeStyle=orthogonalEdgeStyle;rounded=0;orthogonalLoop=1;jettySize=auto;html=1;entryX=0.5;entryY=0;entryDx=0;entryDy=0;" edge="1" parent="1" source="xZ4t5qYj1OsYNwdSgrL3-23" target="xZ4t5qYj1OsYNwdSgrL3-1">
          <mxGeometry relative="1" as="geometry">
            <Array as="points">
              <mxPoint x="365" y="360" />
              <mxPoint x="525" y="360" />
            </Array>
          </mxGeometry>
        </mxCell>
        <mxCell id="xZ4t5qYj1OsYNwdSgrL3-23" value="Requirements" style="rounded=0;whiteSpace=wrap;html=1;" vertex="1" parent="1">
          <mxGeometry x="310" y="280" width="110" height="50" as="geometry" />
        </mxCell>
        <mxCell id="xZ4t5qYj1OsYNwdSgrL3-26" value="Back-End" style="rounded=0;whiteSpace=wrap;html=1;" vertex="1" parent="1">
          <mxGeometry x="1380" y="390" width="110" height="40" as="geometry" />
        </mxCell>
        <mxCell id="xZ4t5qYj1OsYNwdSgrL3-27" value="Database" style="rounded=0;whiteSpace=wrap;html=1;" vertex="1" parent="1">
          <mxGeometry x="1600" y="470" width="90" height="40" as="geometry" />
        </mxCell>
        <mxCell id="xZ4t5qYj1OsYNwdSgrL3-29" value="" style="edgeStyle=orthogonalEdgeStyle;rounded=0;orthogonalLoop=1;jettySize=auto;html=1;" edge="1" parent="1" source="xZ4t5qYj1OsYNwdSgrL3-30" target="xZ4t5qYj1OsYNwdSgrL3-35">
          <mxGeometry relative="1" as="geometry" />
        </mxCell>
        <mxCell id="xZ4t5qYj1OsYNwdSgrL3-30" value="Front-End" style="rounded=0;whiteSpace=wrap;html=1;" vertex="1" parent="1">
          <mxGeometry x="750" y="390" width="110" height="40" as="geometry" />
        </mxCell>
        <mxCell id="xZ4t5qYj1OsYNwdSgrL3-31" value="" style="edgeStyle=orthogonalEdgeStyle;rounded=0;orthogonalLoop=1;jettySize=auto;html=1;entryX=0.5;entryY=0;entryDx=0;entryDy=0;" edge="1" parent="1" source="xZ4t5qYj1OsYNwdSgrL3-35" target="xZ4t5qYj1OsYNwdSgrL3-40">
          <mxGeometry relative="1" as="geometry">
            <Array as="points">
              <mxPoint x="805" y="550" />
              <mxPoint x="995" y="550" />
            </Array>
          </mxGeometry>
        </mxCell>
        <mxCell id="xZ4t5qYj1OsYNwdSgrL3-32" value="" style="edgeStyle=orthogonalEdgeStyle;rounded=0;orthogonalLoop=1;jettySize=auto;html=1;entryX=0.5;entryY=0;entryDx=0;entryDy=0;" edge="1" parent="1" source="xZ4t5qYj1OsYNwdSgrL3-35" target="xZ4t5qYj1OsYNwdSgrL3-36">
          <mxGeometry relative="1" as="geometry">
            <Array as="points">
              <mxPoint x="805" y="550" />
              <mxPoint x="645" y="550" />
            </Array>
          </mxGeometry>
        </mxCell>
        <mxCell id="xZ4t5qYj1OsYNwdSgrL3-33" value="" style="edgeStyle=orthogonalEdgeStyle;rounded=0;orthogonalLoop=1;jettySize=auto;html=1;" edge="1" parent="1" source="xZ4t5qYj1OsYNwdSgrL3-35" target="xZ4t5qYj1OsYNwdSgrL3-37">
          <mxGeometry relative="1" as="geometry">
            <Array as="points">
              <mxPoint x="805" y="550" />
              <mxPoint x="710" y="550" />
            </Array>
          </mxGeometry>
        </mxCell>
        <mxCell id="xZ4t5qYj1OsYNwdSgrL3-34" value="" style="edgeStyle=orthogonalEdgeStyle;rounded=0;orthogonalLoop=1;jettySize=auto;html=1;entryX=0.5;entryY=0;entryDx=0;entryDy=0;" edge="1" parent="1" source="xZ4t5qYj1OsYNwdSgrL3-35" target="xZ4t5qYj1OsYNwdSgrL3-39">
          <mxGeometry relative="1" as="geometry">
            <Array as="points">
              <mxPoint x="805" y="550" />
              <mxPoint x="885" y="550" />
            </Array>
          </mxGeometry>
        </mxCell>
        <mxCell id="xZ4t5qYj1OsYNwdSgrL3-35" value="Screens" style="rounded=0;whiteSpace=wrap;html=1;" vertex="1" parent="1">
          <mxGeometry x="750" y="470" width="110" height="40" as="geometry" />
        </mxCell>
        <mxCell id="xZ4t5qYj1OsYNwdSgrL3-36" value="Sign up" style="rounded=0;whiteSpace=wrap;html=1;" vertex="1" parent="1">
          <mxGeometry x="620" y="580" width="50" height="40" as="geometry" />
        </mxCell>
        <mxCell id="xZ4t5qYj1OsYNwdSgrL3-37" value="Sign in" style="rounded=0;whiteSpace=wrap;html=1;" vertex="1" parent="1">
          <mxGeometry x="680" y="580" width="60" height="40" as="geometry" />
        </mxCell>
        <mxCell id="xZ4t5qYj1OsYNwdSgrL3-38" value="User profile" style="rounded=0;whiteSpace=wrap;html=1;" vertex="1" parent="1">
          <mxGeometry x="750" y="580" width="70" height="40" as="geometry" />
        </mxCell>
        <mxCell id="xZ4t5qYj1OsYNwdSgrL3-39" value="Media management" style="rounded=0;whiteSpace=wrap;html=1;" vertex="1" parent="1">
          <mxGeometry x="830" y="580" width="110" height="40" as="geometry" />
        </mxCell>
        <mxCell id="xZ4t5qYj1OsYNwdSgrL3-40" value="Media playback" style="rounded=0;whiteSpace=wrap;html=1;" vertex="1" parent="1">
          <mxGeometry x="950" y="580" width="90" height="40" as="geometry" />
        </mxCell>
        <mxCell id="xZ4t5qYj1OsYNwdSgrL3-41" value="" style="edgeStyle=orthogonalEdgeStyle;rounded=0;orthogonalLoop=1;jettySize=auto;html=1;entryX=0.5;entryY=0;entryDx=0;entryDy=0;exitX=0.5;exitY=1;exitDx=0;exitDy=0;" edge="1" parent="1" source="xZ4t5qYj1OsYNwdSgrL3-35" target="xZ4t5qYj1OsYNwdSgrL3-38">
          <mxGeometry relative="1" as="geometry">
            <mxPoint x="815" y="540" as="sourcePoint" />
            <mxPoint x="895" y="590" as="targetPoint" />
            <Array as="points">
              <mxPoint x="805" y="550" />
              <mxPoint x="785" y="550" />
            </Array>
          </mxGeometry>
        </mxCell>
        <mxCell id="xZ4t5qYj1OsYNwdSgrL3-42" value="" style="edgeStyle=orthogonalEdgeStyle;rounded=0;orthogonalLoop=1;jettySize=auto;html=1;" edge="1" parent="1" source="xZ4t5qYj1OsYNwdSgrL3-44" target="xZ4t5qYj1OsYNwdSgrL3-30">
          <mxGeometry relative="1" as="geometry">
            <Array as="points">
              <mxPoint x="975" y="360" />
              <mxPoint x="805" y="360" />
            </Array>
          </mxGeometry>
        </mxCell>
        <mxCell id="xZ4t5qYj1OsYNwdSgrL3-43" style="edgeStyle=orthogonalEdgeStyle;rounded=0;orthogonalLoop=1;jettySize=auto;html=1;entryX=0.5;entryY=0;entryDx=0;entryDy=0;" edge="1" parent="1" source="xZ4t5qYj1OsYNwdSgrL3-44" target="xZ4t5qYj1OsYNwdSgrL3-26">
          <mxGeometry relative="1" as="geometry">
            <Array as="points">
              <mxPoint x="975" y="360" />
              <mxPoint x="1435" y="360" />
            </Array>
          </mxGeometry>
        </mxCell>
        <mxCell id="xZ4t5qYj1OsYNwdSgrL3-44" value="Design" style="rounded=0;whiteSpace=wrap;html=1;" vertex="1" parent="1">
          <mxGeometry x="930" y="280" width="80" height="50" as="geometry" />
        </mxCell>
        <mxCell id="xZ4t5qYj1OsYNwdSgrL3-45" value="Service Tier" style="rounded=0;whiteSpace=wrap;html=1;" vertex="1" parent="1">
          <mxGeometry x="1275" y="470" width="90" height="40" as="geometry" />
        </mxCell>
        <mxCell id="xZ4t5qYj1OsYNwdSgrL3-46" value="User management" style="rounded=0;whiteSpace=wrap;html=1;" vertex="1" parent="1">
          <mxGeometry x="1120" y="580" width="80" height="40" as="geometry" />
        </mxCell>
        <mxCell id="xZ4t5qYj1OsYNwdSgrL3-47" value="Media management" style="rounded=0;whiteSpace=wrap;html=1;" vertex="1" parent="1">
          <mxGeometry x="1210" y="580" width="80" height="40" as="geometry" />
        </mxCell>
        <mxCell id="xZ4t5qYj1OsYNwdSgrL3-48" value="User profile" style="rounded=0;whiteSpace=wrap;html=1;" vertex="1" parent="1">
          <mxGeometry x="1300" y="580" width="70" height="40" as="geometry" />
        </mxCell>
        <mxCell id="xZ4t5qYj1OsYNwdSgrL3-49" value="Media management" style="rounded=0;whiteSpace=wrap;html=1;" vertex="1" parent="1">
          <mxGeometry x="1380" y="580" width="110" height="40" as="geometry" />
        </mxCell>
        <mxCell id="xZ4t5qYj1OsYNwdSgrL3-50" value="Media playback" style="rounded=0;whiteSpace=wrap;html=1;" vertex="1" parent="1">
          <mxGeometry x="1500" y="580" width="90" height="40" as="geometry" />
        </mxCell>
      </root>
    </mxGraphModel>
  </diagram>
</mxfile>
